<svg width="20" height="18" viewBox="0 0 20 18" fill="none" xmlns="http://www.w3.org/2000/svg">
<path d="M10 10H10.0084M13.3334 5V3.33334C13.3334 2.89131 13.1578 2.46739 12.8452 2.15483C12.5326 1.84227 12.1087 1.66667 11.6667 1.66667H8.33335C7.89133 1.66667 7.4674 1.84227 7.15484 2.15483C6.84228 2.46739 6.66669 2.89131 6.66669 3.33334V5M18.3334 10.8333C15.8607 12.4658 12.963 13.3361 10 13.3361C7.03706 13.3361 4.13936 12.4658 1.66669 10.8333M3.33335 5H16.6667C17.5872 5 18.3334 5.7462 18.3334 6.66667V15C18.3334 15.9205 17.5872 16.6667 16.6667 16.6667H3.33335C2.41288 16.6667 1.66669 15.9205 1.66669 15V6.66667C1.66669 5.7462 2.41288 5 3.33335 5Z" stroke="#71717A" stroke-width="1.5" stroke-linecap="round" stroke-linejoin="round"/>
</svg>
