<svg width="16" height="16" viewBox="0 0 16 16" fill="none" xmlns="http://www.w3.org/2000/svg">
<path d="M7.33337 7.33333H4.13337C3.38664 7.33333 3.01327 7.33333 2.72805 7.47866C2.47717 7.60649 2.2732 7.81046 2.14537 8.06135C2.00004 8.34656 2.00004 8.71993 2.00004 9.46667V14M14 14V4.13333C14 3.3866 14 3.01323 13.8547 2.72801C13.7269 2.47713 13.5229 2.27316 13.272 2.14532C12.9868 2 12.6134 2 11.8667 2H9.46671C8.71997 2 8.3466 2 8.06139 2.14532C7.8105 2.27316 7.60653 2.47713 7.4787 2.72801C7.33337 3.01323 7.33337 3.3866 7.33337 4.13333V14M14.6667 14H1.33337M9.66671 4.66667H11.6667M9.66671 7.33333H11.6667M9.66671 10H11.6667" stroke="#71717A" stroke-linecap="round" stroke-linejoin="round"/>
</svg>
