<svg width="16" height="16" viewBox="0 0 16 16" fill="none" xmlns="http://www.w3.org/2000/svg">
<g clip-path="url(#clip0_9034_367)">
<path d="M2.66668 12V11.8666C2.66668 10.7465 2.66668 10.1865 2.88466 9.75867C3.07641 9.38234 3.38237 9.07638 3.7587 8.88463C4.18652 8.66665 4.74657 8.66665 5.86668 8.66665H10.1333C11.2534 8.66665 11.8135 8.66665 12.2413 8.88463C12.6176 9.07638 12.9236 9.38234 13.1154 9.75867C13.3333 10.1865 13.3333 10.7465 13.3333 11.8666V12M2.66668 12C1.9303 12 1.33334 12.5969 1.33334 13.3333C1.33334 14.0697 1.9303 14.6666 2.66668 14.6666C3.40306 14.6666 4.00001 14.0697 4.00001 13.3333C4.00001 12.5969 3.40306 12 2.66668 12ZM13.3333 12C12.597 12 12 12.5969 12 13.3333C12 14.0697 12.597 14.6666 13.3333 14.6666C14.0697 14.6666 14.6667 14.0697 14.6667 13.3333C14.6667 12.5969 14.0697 12 13.3333 12ZM8.00001 12C7.26363 12 6.66668 12.5969 6.66668 13.3333C6.66668 14.0697 7.26363 14.6666 8.00001 14.6666C8.73639 14.6666 9.33334 14.0697 9.33334 13.3333C9.33334 12.5969 8.73639 12 8.00001 12ZM8.00001 12V5.33331M4.00001 5.33331H12C12.6213 5.33331 12.9319 5.33331 13.1769 5.23182C13.5036 5.09649 13.7632 4.83693 13.8985 4.51022C14 4.2652 14 3.95457 14 3.33331C14 2.71206 14 2.40143 13.8985 2.1564C13.7632 1.8297 13.5036 1.57013 13.1769 1.43481C12.9319 1.33331 12.6213 1.33331 12 1.33331H4.00001C3.37875 1.33331 3.06813 1.33331 2.8231 1.43481C2.49639 1.57013 2.23683 1.8297 2.1015 2.1564C2.00001 2.40143 2.00001 2.71206 2.00001 3.33331C2.00001 3.95457 2.00001 4.2652 2.1015 4.51022C2.23683 4.83693 2.49639 5.09649 2.8231 5.23182C3.06813 5.33331 3.37875 5.33331 4.00001 5.33331Z" stroke="#71717A" stroke-width="1.6" stroke-linecap="round" stroke-linejoin="round"/>
</g>
<defs>
<clipPath id="clip0_9034_367">
<rect width="16" height="16" fill="white"/>
</clipPath>
</defs>
</svg>
