<svg width="20" height="20" viewBox="0 0 20 20" fill="none" xmlns="http://www.w3.org/2000/svg">
<g clip-path="url(#clip0_9064_4138)">
<path fill-rule="evenodd" clip-rule="evenodd" d="M9.96812 0.303101C11.771 0.323674 13.3997 0.766763 14.8543 1.63237C16.2915 2.4807 17.487 3.68355 18.3266 5.12591C19.1869 6.58923 19.6273 8.22781 19.6478 10.0416C19.5967 12.5234 18.814 14.6431 17.2995 16.4007C15.7851 18.1582 13.8454 19.2456 11.8375 19.6624V12.7043H13.7358L14.1651 9.96994H11.2906V8.179C11.2747 7.80772 11.3921 7.44299 11.6216 7.15075C11.8515 6.85771 12.2563 6.70369 12.8361 6.68869H14.5719V4.29344C14.547 4.28543 14.3106 4.25374 13.8629 4.19838C13.3551 4.13896 12.8445 4.10723 12.3332 4.10332C11.1761 4.10865 10.261 4.43505 9.58785 5.08251C8.91471 5.72979 8.57085 6.66626 8.55627 7.89192V9.96994H6.36877V12.7043H8.55627V19.6624C6.09085 19.2456 4.15119 18.1582 2.63674 16.4007C1.12229 14.6431 0.339554 12.5234 0.288452 10.0416C0.308897 8.22772 0.749309 6.58914 1.60969 5.12591C2.44925 3.68355 3.6448 2.4807 5.08202 1.63237C6.53653 0.76693 8.16523 0.32384 9.96812 0.303101Z" fill="#71717A"/>
</g>
<defs>
<clipPath id="clip0_9064_4138">
<rect width="20" height="20" fill="white"/>
</clipPath>
</defs>
</svg>
