<svg width="20" height="20" viewBox="0 0 20 20" fill="none" xmlns="http://www.w3.org/2000/svg">
<g clip-path="url(#clip0_9064_4140)">
<path d="M10 0.833008C15.0624 0.833008 19.167 4.93757 19.167 10C19.167 15.0624 15.0624 19.167 10 19.167C4.93757 19.167 0.833008 15.0624 0.833008 10C0.833008 4.93756 4.93756 0.833008 10 0.833008ZM8.84473 10.5977L4.72949 15.3818H5.65918L9.25781 11.1992L12.1318 15.3818H15.2705L11.0029 9.16992L14.9268 4.6084H13.9971L10.5898 8.56934L7.86816 4.6084H4.72949L8.84473 10.5977ZM13.9971 14.7129H12.5693L5.99414 5.30859H7.42285L13.9971 14.7129Z" fill="#71717A"/>
</g>
<defs>
<clipPath id="clip0_9064_4140">
<rect width="20" height="20" fill="white"/>
</clipPath>
</defs>
</svg>
