<svg width="12" height="17" viewBox="0 0 12 17" fill="none" xmlns="http://www.w3.org/2000/svg">
<path d="M0.6 16.5C0.272 16.5 0 16.228 0 15.9V1.1C0 0.772 0.272 0.5 0.6 0.5C0.928 0.5 1.2 0.772 1.2 1.1V15.9C1.2 16.228 0.928 16.5 0.6 16.5Z" fill="#FF3B30"/>
<path opacity="0.4" d="M10.8953 8.76396L9.91929 7.78796C9.68729 7.58796 9.55129 7.29196 9.54329 6.96396C9.52729 6.60396 9.67129 6.24396 9.93529 5.97996L10.8953 5.01996C11.7273 4.18796 12.0393 3.38796 11.7753 2.75596C11.5193 2.13196 10.7273 1.78796 9.55929 1.78796H0.599288C0.431288 1.79596 0.295288 1.93196 0.295288 2.09996V11.7C0.295288 11.868 0.431288 12.004 0.599288 12.004H9.55929C10.7113 12.004 11.4873 11.652 11.7513 11.02C12.0153 10.38 11.7113 9.58796 10.8953 8.76396Z" fill="#FF3B30"/>
</svg>
