<svg width="16" height="14" viewBox="0 0 16 14" fill="none" xmlns="http://www.w3.org/2000/svg">
<path d="M1.33334 7H3.92132C4.37812 7 4.79572 7.25809 5.00001 7.66667C5.2043 8.07525 5.6219 8.33334 6.0787 8.33334H9.92132C10.3781 8.33334 10.7957 8.07525 11 7.66667C11.2043 7.25809 11.6219 7 12.0787 7H14.6667M1.33334 7V4.86667C1.33334 3.74657 1.33334 3.18651 1.55133 2.75869C1.74308 2.38237 2.04904 2.07641 2.42536 1.88466C2.85319 1.66667 3.41324 1.66667 4.53334 1.66667H11.4667C12.5868 1.66667 13.1468 1.66667 13.5747 1.88466C13.951 2.07641 14.2569 2.38237 14.4487 2.75869C14.6667 3.18651 14.6667 3.74657 14.6667 4.86667V7M1.33334 7V9.13334C1.33334 10.2534 1.33334 10.8135 1.55133 11.2413C1.74308 11.6176 2.04904 11.9236 2.42536 12.1154C2.85319 12.3333 3.41324 12.3333 4.53334 12.3333H11.4667C12.5868 12.3333 13.1468 12.3333 13.5747 12.1154C13.951 11.9236 14.2569 11.6176 14.4487 11.2413C14.6667 10.8135 14.6667 10.2534 14.6667 9.13334V7" stroke="#71717A" stroke-width="1.5" stroke-linecap="round" stroke-linejoin="round"/>
</svg>
