<svg width="20" height="20" viewBox="0 0 20 20" fill="none" xmlns="http://www.w3.org/2000/svg">
<g clip-path="url(#clip0_9064_4142)">
<path fill-rule="evenodd" clip-rule="evenodd" d="M10.1658 8.21192C10.4099 8.20906 10.652 8.25504 10.8781 8.34717C11.1041 8.4393 11.3094 8.57571 11.4819 8.74838C11.852 9.10593 12.0371 9.55089 12.0371 10.0833C12.0371 10.6154 11.852 11.0583 11.4819 11.4117C11.3086 11.5828 11.1029 11.7178 10.877 11.8088C10.6511 11.8998 10.4094 11.9451 10.1658 11.942C9.63356 11.942 9.18448 11.7653 8.81854 11.4117C8.4526 11.0582 8.26962 10.6154 8.26961 10.0833C8.26961 9.5508 8.45259 9.10584 8.81854 8.74838C9.18443 8.39082 9.63352 8.212 10.1658 8.21192ZM5.17577 8.21192H7.6583C7.47607 8.48506 7.32542 8.77801 7.20924 9.08512C7.09073 9.40443 7.03153 9.7427 7.03456 10.0833C7.03124 10.4997 7.11627 10.9121 7.28404 11.2932C7.44422 11.6583 7.66812 11.9921 7.94526 12.2788C8.2293 12.5681 8.56872 12.7972 8.94324 12.9525C9.32957 13.1179 9.74556 13.2027 10.1658 13.2019C10.5741 13.2037 10.9786 13.1228 11.3549 12.9641C11.7311 12.8055 12.0714 12.5724 12.3552 12.2788C12.629 11.9907 12.8506 11.6572 13.0101 11.2932C13.1779 10.9121 13.263 10.4997 13.2597 10.0833C13.2627 9.7427 13.2035 9.40443 13.085 9.08512C12.9706 8.7817 12.8286 8.48941 12.6608 8.21193H15.1558V13.2019C15.1558 13.7092 14.9708 14.148 14.6007 14.5181C14.4269 14.6973 14.2183 14.839 13.9877 14.9345C13.757 15.03 13.5093 15.0772 13.2597 15.0732H7.03456C6.51062 15.0732 6.06983 14.8882 5.71221 14.5181C5.53955 14.3455 5.40313 14.1402 5.31101 13.9142C5.21888 13.6881 5.1729 13.446 5.17577 13.2019V8.21192ZM12.6609 5.7168V6.95181H13.8959V5.7168H12.6609ZM7.03456 5.09302H13.2597C13.5077 5.0885 13.7541 5.13363 13.9844 5.22576C14.2147 5.31789 14.4242 5.45516 14.6007 5.62948C14.9708 5.98729 15.1559 6.42807 15.1558 6.95181V7.57559H12.0121C11.7371 7.39657 11.4445 7.24616 11.1389 7.12671C10.8283 7.00803 10.4983 6.9487 10.1658 6.95181C9.8295 6.95093 9.49576 7.01017 9.1803 7.12671C8.86837 7.24087 8.57104 7.39154 8.29453 7.57559H5.17578V6.95181C5.17578 6.4279 5.3546 5.98712 5.71222 5.62948C6.06983 5.27193 6.51059 5.09311 7.03456 5.09302ZM6.39832 3.83317C5.70804 3.83317 5.12171 4.07438 4.63934 4.55682C4.157 5.03907 3.91582 5.62538 3.91579 6.31573V13.8131C3.91579 14.5119 4.15698 15.1004 4.63934 15.5784C5.12171 16.0567 5.70804 16.2958 6.39832 16.2957H13.8958C14.5945 16.2957 15.1829 16.0566 15.6611 15.5784C16.1393 15.1002 16.3784 14.5118 16.3784 13.8131V6.31574C16.3784 5.62547 16.1393 5.03917 15.6611 4.55682C15.1829 4.0743 14.5944 3.83309 13.8958 3.83318L6.39832 3.83317ZM10.1471 0.384766C15.493 0.384766 19.8268 4.71838 19.8268 10.0646C19.8268 15.4105 15.493 19.7441 10.1471 19.7441C4.80115 19.7441 0.467407 15.4105 0.467407 10.0646C0.467407 4.71838 4.80115 0.384766 10.1471 0.384766Z" fill="#71717A"/>
</g>
<defs>
<clipPath id="clip0_9064_4142">
<rect width="20" height="20" fill="white"/>
</clipPath>
</defs>
</svg>
