<svg width="20" height="20" viewBox="0 0 20 20" fill="none" xmlns="http://www.w3.org/2000/svg">
<g clip-path="url(#clip0_9064_4139)">
<path fill-rule="evenodd" clip-rule="evenodd" d="M10.0241 0.544067C4.66531 0.544067 0.320312 4.86192 0.320312 10.2239C0.320312 15.538 4.66532 19.9034 10.0241 19.9034C15.383 19.9034 19.6797 15.538 19.6797 10.2239C19.6797 4.86192 15.383 0.544067 10.0241 0.544067ZM7.61025 14.9212H5.14808V6.42778H7.61025V14.9212ZM6.45158 5.90574C5.82397 5.90574 5.3412 5.43123 5.3412 4.76713C5.3412 4.15029 5.82397 3.62825 6.45158 3.62825C7.07919 3.67578 7.61025 4.15029 7.61025 4.76713C7.61025 5.43123 7.07919 5.90574 6.45158 5.90574ZM16.0588 14.9212H13.645V9.65428C13.645 9.03744 13.4519 8.61047 12.7277 8.61047C11.4725 8.61047 11.2311 9.65428 11.2311 9.65428V14.9212H8.81719V6.42778H11.2311V7.23447C11.569 6.99708 12.438 6.42778 13.645 6.42778C14.4174 6.42778 16.0588 6.90229 16.0588 9.74935L16.0588 14.9212Z" fill="#71717A"/>
</g>
<defs>
<clipPath id="clip0_9064_4139">
<rect width="20" height="20" fill="white"/>
</clipPath>
</defs>
</svg>
