<svg width="12" height="16" viewBox="0 0 12 16" fill="none" xmlns="http://www.w3.org/2000/svg">
<path d="M0.6 16C0.272 16 0 15.728 0 15.4V0.6C0 0.272 0.272 0 0.6 0C0.928 0 1.2 0.272 1.2 0.6V15.4C1.2 15.728 0.928 16 0.6 16Z" fill="#4CA30D"/>
<path opacity="0.4" d="M10.8953 8.26409L9.91929 7.28809C9.68729 7.08809 9.55129 6.79209 9.54329 6.46409C9.52729 6.10409 9.67129 5.74409 9.93529 5.48009L10.8953 4.52009C11.7273 3.68809 12.0393 2.88809 11.7753 2.25609C11.5193 1.63209 10.7273 1.28809 9.55929 1.28809H0.599288C0.431288 1.29609 0.295288 1.43209 0.295288 1.60009V11.2001C0.295288 11.3681 0.431288 11.5041 0.599288 11.5041H9.55929C10.7113 11.5041 11.4873 11.1521 11.7513 10.5201C12.0153 9.88009 11.7113 9.08809 10.8953 8.26409Z" fill="#4CA30D"/>
</svg>
