<svg width="16" height="16" viewBox="0 0 16 16" fill="none" xmlns="http://www.w3.org/2000/svg">
<path d="M14.3334 12L9.9048 7.99996M6.09528 7.99996L1.66673 12M1.33337 4.66663L6.77665 8.47692C7.21743 8.78547 7.43783 8.93974 7.67755 8.9995C7.8893 9.05228 8.11078 9.05228 8.32253 8.9995C8.56226 8.93974 8.78265 8.78547 9.22343 8.47692L14.6667 4.66663M4.53337 13.3333H11.4667C12.5868 13.3333 13.1469 13.3333 13.5747 13.1153C13.951 12.9236 14.257 12.6176 14.4487 12.2413C14.6667 11.8134 14.6667 11.2534 14.6667 10.1333V5.86663C14.6667 4.74652 14.6667 4.18647 14.4487 3.75864C14.257 3.38232 13.951 3.07636 13.5747 2.88461C13.1469 2.66663 12.5868 2.66663 11.4667 2.66663H4.53337C3.41327 2.66663 2.85322 2.66663 2.42539 2.88461C2.04907 3.07636 1.74311 3.38232 1.55136 3.75864C1.33337 4.18647 1.33337 4.74652 1.33337 5.86663V10.1333C1.33337 11.2534 1.33337 11.8134 1.55136 12.2413C1.74311 12.6176 2.04907 12.9236 2.42539 13.1153C2.85322 13.3333 3.41327 13.3333 4.53337 13.3333Z" stroke="#71717A" stroke-linecap="round" stroke-linejoin="round"/>
</svg>
