<svg width="16" height="16" viewBox="0 0 16 16" fill="none" xmlns="http://www.w3.org/2000/svg">
<path d="M3.43335 14.6667C3.16002 14.6667 2.93335 14.44 2.93335 14.1667V1.83337C2.93335 1.56004 3.16002 1.33337 3.43335 1.33337C3.70668 1.33337 3.93335 1.56004 3.93335 1.83337V14.1667C3.93335 14.44 3.70668 14.6667 3.43335 14.6667Z" fill="#55BBF5"/>
<path opacity="0.4" d="M12.0133 8.21995L11.1999 7.40662C11.0066 7.23995 10.8933 6.99328 10.8866 6.71995C10.8733 6.41995 10.9933 6.11995 11.2133 5.89995L12.0133 5.09995C12.7066 4.40662 12.9666 3.73995 12.7466 3.21328C12.5333 2.69328 11.8733 2.40662 10.8999 2.40662H3.43327C3.29327 2.41328 3.17993 2.52662 3.17993 2.66662V10.6666C3.17993 10.8066 3.29327 10.9199 3.43327 10.9199H10.8999C11.8599 10.9199 12.5066 10.6266 12.7266 10.0999C12.9466 9.56662 12.6933 8.90662 12.0133 8.21995Z" fill="#55BBF5"/>
</svg>
