<svg width="16" height="16" viewBox="0 0 16 16" fill="none" xmlns="http://www.w3.org/2000/svg">
<path d="M10.6667 5.33334V3.46667C10.6667 2.71993 10.6667 2.34656 10.5214 2.06135C10.3935 1.81047 10.1895 1.60649 9.93866 1.47866C9.65345 1.33334 9.28008 1.33334 8.53334 1.33334H3.46668C2.71994 1.33334 2.34657 1.33334 2.06136 1.47866C1.81047 1.60649 1.6065 1.81047 1.47867 2.06135C1.33334 2.34656 1.33334 2.71993 1.33334 3.46667V8.53334C1.33334 9.28007 1.33334 9.65344 1.47867 9.93866C1.6065 10.1895 1.81047 10.3935 2.06136 10.5213C2.34657 10.6667 2.71994 10.6667 3.46668 10.6667H5.33334M8.00001 10L9.33334 11.3333L12.3333 8.33334M7.46668 14.6667H12.5333C13.2801 14.6667 13.6534 14.6667 13.9387 14.5213C14.1895 14.3935 14.3935 14.1895 14.5214 13.9387C14.6667 13.6534 14.6667 13.2801 14.6667 12.5333V7.46667C14.6667 6.71993 14.6667 6.34656 14.5214 6.06135C14.3935 5.81047 14.1895 5.60649 13.9387 5.47866C13.6534 5.33334 13.2801 5.33334 12.5333 5.33334H7.46668C6.71994 5.33334 6.34657 5.33334 6.06136 5.47866C5.81047 5.60649 5.6065 5.81047 5.47867 6.06135C5.33334 6.34656 5.33334 6.71993 5.33334 7.46667V12.5333C5.33334 13.2801 5.33334 13.6534 5.47867 13.9387C5.6065 14.1895 5.81047 14.3935 6.06136 14.5213C6.34657 14.6667 6.71994 14.6667 7.46668 14.6667Z" stroke="#71717A" stroke-width="1.5" stroke-linecap="round" stroke-linejoin="round"/>
</svg>
