<svg width="14" height="16" viewBox="0 0 14 16" fill="none" xmlns="http://www.w3.org/2000/svg">
<path d="M12.3333 6.66668V4.53334C12.3333 3.41324 12.3333 2.85319 12.1153 2.42536C11.9236 2.04904 11.6176 1.74308 11.2413 1.55133C10.8135 1.33334 10.2534 1.33334 9.13332 1.33334H4.86666C3.74655 1.33334 3.1865 1.33334 2.75868 1.55133C2.38235 1.74308 2.07639 2.04904 1.88464 2.42536C1.66666 2.85319 1.66666 3.41324 1.66666 4.53334V11.4667C1.66666 12.5868 1.66666 13.1468 1.88464 13.5747C2.07639 13.951 2.38235 14.2569 2.75868 14.4487C3.1865 14.6667 3.74655 14.6667 4.86666 14.6667H6.99999M7.33332 7.33334H4.33332M4.99999 10H4.33332M9.66666 4.66668H4.33332M10.3315 9.88707C9.79834 9.28108 8.90926 9.11807 8.24124 9.67298C7.57323 10.2279 7.47918 11.1557 8.00378 11.812C8.52837 12.4683 10.3315 14 10.3315 14C10.3315 14 12.1346 12.4683 12.6592 11.812C13.1838 11.1557 13.1012 10.2221 12.4218 9.67298C11.7423 9.1239 10.8647 9.28108 10.3315 9.88707Z" stroke="#71717A" stroke-width="1.5" stroke-linecap="round" stroke-linejoin="round"/>
</svg>
