<svg width="14" height="16" viewBox="0 0 14 16" fill="none" xmlns="http://www.w3.org/2000/svg">
<path d="M10.3333 6.33333V4.06666C10.3333 3.69329 10.3333 3.50661 10.2607 3.364C10.1968 3.23856 10.0948 3.13657 9.96933 3.07266C9.82672 2.99999 9.64004 2.99999 9.26667 2.99999H1M7.66667 9.66666V11.9333C7.66667 12.3067 7.66667 12.4934 7.594 12.636C7.53009 12.7614 7.4281 12.8634 7.30266 12.9273C7.16005 13 6.97337 13 6.6 13H1M1 1.33333L1 14.6667M1 9.66666L11.9333 9.66666C12.3067 9.66666 12.4934 9.66666 12.636 9.594C12.7614 9.53008 12.8634 9.4281 12.9273 9.30266C13 9.16005 13 8.97336 13 8.59999V7.4C13 7.02663 13 6.83994 12.9273 6.69734C12.8634 6.57189 12.7614 6.46991 12.636 6.40599C12.4934 6.33333 12.3067 6.33333 11.9333 6.33333L1 6.33333L1 9.66666Z" stroke="#71717A" stroke-width="1.5" stroke-linecap="round" stroke-linejoin="round"/>
</svg>
