<svg width="16" height="15" viewBox="0 0 16 15" fill="none" xmlns="http://www.w3.org/2000/svg">
<path d="M12.6667 6.66666L3.33332 6.66666M12.6667 6.66666L13.9094 8.73794C14.1879 9.20214 14.3272 9.43424 14.3995 9.68409C14.4636 9.90548 14.489 10.1363 14.4744 10.3663C14.458 10.6259 14.3724 10.8827 14.2012 11.3963L14.0627 11.8119C13.8004 12.5987 13.6693 12.9921 13.426 13.283C13.2112 13.5399 12.9354 13.7387 12.6238 13.8612C12.271 14 11.8563 14 11.0269 14L4.97308 14C4.1437 14 3.72901 14 3.37616 13.8612C3.06457 13.7387 2.78873 13.5399 2.57394 13.283C2.33071 12.9921 2.19957 12.5987 1.9373 11.8119L1.79874 11.3963C1.62755 10.8827 1.54196 10.6259 1.52556 10.3663C1.51102 10.1363 1.53636 9.90548 1.60045 9.68409C1.67277 9.43424 1.81203 9.20214 2.09055 8.73794L3.33332 6.66666M12.6667 6.66666L12.9448 5.69303C13.0767 5.23143 13.1427 5.00064 13.0909 4.81804C13.0455 4.65809 12.942 4.52087 12.8006 4.43329C12.6393 4.33332 12.3993 4.33332 11.9192 4.33332L4.08077 4.33332C3.6007 4.33332 3.36067 4.33332 3.19933 4.43329C3.058 4.52087 2.95449 4.65809 2.90912 4.81804C2.85732 5.00064 2.92326 5.23143 3.05514 5.69303L3.33332 6.66666M7.99999 4.33332H5.64284C5.29554 4.33332 4.96246 4.19285 4.71687 3.9428C4.47129 3.69275 4.33332 3.35361 4.33332 2.99999C4.33332 2.64637 4.47129 2.30723 4.71687 2.05718C4.96246 1.80713 5.29554 1.66666 5.64284 1.66666C7.47618 1.66666 7.99999 4.33332 7.99999 4.33332ZM7.99999 4.33332H10.3571C10.7044 4.33332 11.0375 4.19285 11.2831 3.9428C11.5287 3.69275 11.6667 3.35361 11.6667 2.99999C11.6667 2.64637 11.5287 2.30723 11.2831 2.05718C11.0375 1.80713 10.7044 1.66666 10.3571 1.66666C8.5238 1.66666 7.99999 4.33332 7.99999 4.33332Z" stroke="#71717A" stroke-width="1.5" stroke-linecap="round" stroke-linejoin="round"/>
</svg>
