<svg width="14" height="16" viewBox="0 0 14 16" fill="none" xmlns="http://www.w3.org/2000/svg">
<path d="M8.33335 7.33337H4.33335M5.66669 10H4.33335M9.66669 4.66671H4.33335M12.3334 4.53337V11.4667C12.3334 12.5868 12.3334 13.1469 12.1154 13.5747C11.9236 13.951 11.6177 14.257 11.2413 14.4487C10.8135 14.6667 10.2535 14.6667 9.13335 14.6667H4.86669C3.74658 14.6667 3.18653 14.6667 2.75871 14.4487C2.38238 14.257 2.07642 13.951 1.88467 13.5747C1.66669 13.1469 1.66669 12.5868 1.66669 11.4667V4.53337C1.66669 3.41327 1.66669 2.85322 1.88467 2.42539C2.07642 2.04907 2.38238 1.74311 2.75871 1.55136C3.18653 1.33337 3.74658 1.33337 4.86669 1.33337H9.13335C10.2535 1.33337 10.8135 1.33337 11.2413 1.55136C11.6177 1.74311 11.9236 2.04907 12.1154 2.42539C12.3334 2.85322 12.3334 3.41327 12.3334 4.53337Z" stroke="#71717A" stroke-width="1.5" stroke-linecap="round" stroke-linejoin="round"/>
</svg>
