<svg width="16" height="16" viewBox="0 0 16 16" fill="none" xmlns="http://www.w3.org/2000/svg">
<path d="M2.66669 14.5449C3.06841 14.6666 3.611 14.6666 4.53334 14.6666H11.4667C12.389 14.6666 12.9316 14.6666 13.3333 14.5449M2.66669 14.5449C2.58056 14.5188 2.5009 14.4871 2.42536 14.4487C2.04904 14.2569 1.74308 13.951 1.55133 13.5746C1.33334 13.1468 1.33334 12.5868 1.33334 11.4666V4.53331C1.33334 3.41321 1.33334 2.85316 1.55133 2.42533C1.74308 2.04901 2.04904 1.74305 2.42536 1.5513C2.85319 1.33331 3.41324 1.33331 4.53334 1.33331H11.4667C12.5868 1.33331 13.1468 1.33331 13.5747 1.5513C13.951 1.74305 14.2569 2.04901 14.4487 2.42533C14.6667 2.85316 14.6667 3.41321 14.6667 4.53331V11.4666C14.6667 12.5868 14.6667 13.1468 14.4487 13.5746C14.2569 13.951 13.951 14.2569 13.5747 14.4487C13.4991 14.4871 13.4195 14.5188 13.3333 14.5449M2.66669 14.5449C2.66691 14.0054 2.67015 13.7199 2.71792 13.4797C2.92833 12.4219 3.75526 11.595 4.8131 11.3846C5.0707 11.3333 5.38047 11.3333 6.00001 11.3333H10C10.6196 11.3333 10.9293 11.3333 11.1869 11.3846C12.2448 11.595 13.0717 12.4219 13.2821 13.4797C13.3299 13.7199 13.3331 14.0054 13.3333 14.5449M10.6667 6.33331C10.6667 7.80607 9.47277 8.99998 8.00001 8.99998C6.52725 8.99998 5.33334 7.80607 5.33334 6.33331C5.33334 4.86055 6.52725 3.66665 8.00001 3.66665C9.47277 3.66665 10.6667 4.86055 10.6667 6.33331Z" stroke="#71717A" stroke-width="1.6" stroke-linecap="round" stroke-linejoin="round"/>
</svg>
