<svg width="16" height="16" viewBox="0 0 16 16" fill="none" xmlns="http://www.w3.org/2000/svg">
<g clip-path="url(#clip0_9035_7542)">
<path d="M8.0332 0.665039C9.9774 0.66565 11.7992 1.42109 13.1719 2.79492C14.4581 4.08234 15.2013 5.76596 15.2881 7.57129L15.2969 7.93359C15.295 11.9385 12.0349 15.197 8.0332 15.1973H8.0293C6.8136 15.1966 5.6194 14.8919 4.55957 14.3135L4.32715 14.1875L4.07227 14.2539L0.983398 15.0635L1.80469 12.0674L1.87793 11.7998L1.73926 11.5596C1.10387 10.4584 0.768989 9.20934 0.769531 7.92871C0.771363 3.92372 4.03067 0.665156 8.0332 0.665039ZM8.03711 0.673828C4.16046 0.673828 0.98522 3.72691 0.789062 7.55469L0.779297 7.92773C0.77858 9.29703 1.16153 10.633 1.88867 11.7891V11.7881L1.88965 11.7891L1.30078 13.9404L0.996094 15.0518L2.11035 14.7588L4.33594 14.1748L4.33691 14.1758V14.1768C5.45181 14.8385 6.72868 15.1884 8.03027 15.1885H8.0332C12.0327 15.1885 15.2859 11.934 15.2881 7.93262C15.2887 6.11684 14.6255 4.40036 13.415 3.06348L13.166 2.80078C11.7975 1.43081 9.97368 0.673921 8.03711 0.673828ZM5.46484 4.93555C5.54813 5.1371 5.67149 5.43767 5.78516 5.71387C5.86843 5.9162 5.96001 6.12933 6.01855 6.26465C6.01611 6.26925 6.01472 6.27374 6.0127 6.27734C6.00428 6.2923 5.99637 6.30374 5.97852 6.32422L5.97461 6.3291C5.83155 6.49619 5.7797 6.57137 5.71387 6.63672L5.71289 6.63867C5.68229 6.66928 5.51825 6.81882 5.43555 7.04102C5.32914 7.327 5.38404 7.61156 5.52051 7.84668C5.64757 8.06555 6.08765 8.78636 6.75488 9.38184C7.59737 10.1338 8.3614 10.3969 8.49316 10.4629C8.6365 10.5348 8.85713 10.6223 9.11719 10.5908C9.40424 10.556 9.60006 10.396 9.72168 10.2568C9.80285 10.164 10.0441 9.87953 10.2305 9.64062C10.2445 9.64708 10.2592 9.65406 10.2744 9.66113C10.39 9.71487 10.5317 9.78201 10.6758 9.85156C10.9642 9.99084 11.254 10.1347 11.3496 10.1826C11.357 10.1863 11.3648 10.1897 11.3721 10.1934C11.3565 10.2913 11.3318 10.4103 11.2861 10.5381C11.2879 10.5332 11.2749 10.5665 11.2119 10.6309C11.1517 10.6924 11.0667 10.7599 10.9648 10.8252C10.7452 10.966 10.5419 11.0362 10.4766 11.0459C10.1902 11.0884 9.87036 11.0997 9.52832 10.9912C9.31989 10.925 9.07297 10.8447 8.77539 10.7275L8.46094 10.5977C6.67048 9.82465 5.47939 7.99721 5.3457 7.81836C5.30248 7.76054 5.12806 7.52851 4.96484 7.20703C4.79665 6.87569 4.66992 6.50495 4.66992 6.16699C4.67003 5.46992 5.0103 5.15916 5.18945 4.96289C5.19962 4.95177 5.20819 4.94528 5.21387 4.94141C5.21952 4.93757 5.22403 4.93501 5.22754 4.93359C5.23054 4.93239 5.2331 4.93193 5.23438 4.93164C5.31861 4.93166 5.39557 4.93397 5.46484 4.93555ZM10.1768 9.2627H10.1777L10.0713 9.55469H10.0703L10.1768 9.2627Z" fill="#18181B" stroke="#18181B" stroke-width="1.33"/>
</g>
<defs>
<clipPath id="clip0_9035_7542">
<rect width="16" height="16" fill="white"/>
</clipPath>
</defs>
</svg>
