<svg width="20" height="20" viewBox="0 0 20 20" fill="none" xmlns="http://www.w3.org/2000/svg">
<g clip-path="url(#clip0_9064_4141)">
<path fill-rule="evenodd" clip-rule="evenodd" d="M8.17497 8.07432C8.22497 8.09088 9.2379 8.61604 11.2138 9.64979C11.6556 9.88344 11.8765 10.0043 11.8765 10.0124L8.17496 11.9259L8.17497 8.07432ZM10.0258 5.17305C9.29208 5.17305 8.45421 5.18551 7.51217 5.21043C5.92818 5.2521 5.01947 5.3063 4.78604 5.37305C4.37748 5.44809 4.02316 5.65655 3.72306 5.99844C3.56468 6.215 3.41461 6.62765 3.27285 7.23639C3.19785 8.06177 3.16035 8.79957 3.16035 9.44979C3.16035 11.4675 3.23538 12.6721 3.38546 13.0638C3.43348 13.2968 3.49612 13.5265 3.57301 13.7516C3.7898 14.1433 4.14829 14.4268 4.64847 14.6021L5.19872 14.6646C5.34044 14.7063 5.76562 14.7396 6.47424 14.7645C8.12495 14.8061 9.32962 14.827 10.0882 14.827C10.7636 14.827 11.6431 14.8187 12.7269 14.8021C14.1442 14.7522 14.957 14.7022 15.1654 14.6521C15.5072 14.6021 15.7865 14.4854 16.0033 14.302C16.2607 14.0867 16.4551 13.8058 16.566 13.4892C16.7911 12.9388 16.9037 11.9634 16.9037 10.5628V9.44979C16.8983 8.71003 16.8524 7.97112 16.7661 7.23639C16.6577 6.611 16.4785 6.16498 16.2284 5.8983C16.1034 5.76479 16.0158 5.69394 15.9658 5.68575C15.7527 5.50864 15.4913 5.39969 15.2154 5.37305C14.5568 5.2398 12.8269 5.17314 10.0258 5.17305ZM10.032 0.320312C15.3779 0.320312 19.7117 4.65391 19.7117 10.0001C19.7117 15.346 15.3779 19.6796 10.032 19.6796C4.68604 19.6796 0.352295 15.346 0.352295 10.0001C0.352295 4.65392 4.68604 0.320312 10.032 0.320312Z" fill="#71717A"/>
</g>
<defs>
<clipPath id="clip0_9064_4141">
<rect width="20" height="20" fill="white"/>
</clipPath>
</defs>
</svg>
